<svg preserveAspectRatio="xMidYMid meet" data-bbox="39 19.999 121.999 160.001" viewBox="39 19.999 121.999 160.001" height="200" width="200" xmlns="http://www.w3.org/2000/svg" data-type="color" role="presentation" aria-hidden="true" aria-label=""><defs><style>#comp-le2s1kwy svg [data-color="1"] {fill: #FFFFFF;}</style></defs>
    <g>
        <path d="M100 126.646c-24.275 0-44.025-19.639-44.025-43.777 0-24.139 19.749-43.778 44.025-43.778s44.025 19.639 44.025 43.778c0 24.138-19.75 43.777-44.025 43.777zm0-83.873c-22.244 0-40.34 17.987-40.34 40.095s18.096 40.094 40.34 40.094 40.34-17.986 40.34-40.094S122.244 42.773 100 42.773z" fill="#f7f7f8" data-color="1"></path>
        <path d="M100 145.735a17.797 17.797 0 0 1-12.38-5.008 14.08 14.08 0 0 0-11.806-3.812c-9.565 1.347-18.365-5.016-20.035-14.48-.756-4.293-3.414-7.928-7.289-9.972-8.541-4.504-11.903-14.799-7.655-23.436a13.861 13.861 0 0 0 0-12.319c-4.247-8.637-.884-18.931 7.655-23.436 3.875-2.044 6.533-5.679 7.289-9.972 1.67-9.464 10.466-15.826 20.035-14.48 4.345.616 8.65-.776 11.806-3.812a17.802 17.802 0 0 1 24.759 0 14.086 14.086 0 0 0 11.806 3.812c9.571-1.34 18.365 5.017 20.035 14.48.756 4.293 3.414 7.928 7.289 9.972 8.54 4.505 11.902 14.8 7.655 23.436a13.861 13.861 0 0 0 0 12.319c4.248 8.638.885 18.932-7.655 23.436-3.875 2.044-6.533 5.679-7.289 9.972-1.67 9.464-10.47 15.812-20.035 14.48a14.081 14.081 0 0 0-11.806 3.812A17.803 17.803 0 0 1 100 145.735zm-22.163-12.644a17.73 17.73 0 0 1 12.338 4.983 14.133 14.133 0 0 0 19.651 0c3.976-3.825 9.397-5.574 14.873-4.805 7.591 1.078 14.57-3.971 15.894-11.473.955-5.421 4.308-10.01 9.198-12.589 6.765-3.567 9.431-11.719 6.069-18.555a17.52 17.52 0 0 1 0-15.567c3.362-6.837.696-14.987-6.069-18.555-4.89-2.58-8.242-7.168-9.198-12.589-1.323-7.5-8.295-12.543-15.894-11.473-5.482.769-10.898-.982-14.873-4.805a14.133 14.133 0 0 0-19.651 0c-3.976 3.824-9.397 5.574-14.873 4.805-7.582-1.072-14.569 3.973-15.894 11.473-.955 5.421-4.308 10.01-9.198 12.589-6.764 3.568-9.431 11.719-6.069 18.555a17.52 17.52 0 0 1 0 15.567c-3.362 6.837-.697 14.988 6.069 18.555 4.89 2.58 8.242 7.168 9.198 12.589 1.323 7.5 8.295 12.549 15.894 11.473a18.09 18.09 0 0 1 2.535-.178z" fill="#f7f7f8" data-color="1"></path>
        <path fill="#f7f7f8" d="M129.964 180 100 163.752 70.036 180v-44.83h3.685v38.643L100 159.563l26.279 14.25V135.17h3.685V180z" data-color="1"></path>
    </g>
</svg>